<svg viewBox="0 0 4507.43 892" version="1.1" xmlns="http://www.w3.org/2000/svg" id="Layer_1">
  
  <defs>
    <style>
      .st0 {
        fill: #334bd7;
      }
    </style>
  </defs>
  <path d="M479.42,178.58v118.95c94.33,16.85,149.56,105.52,149.56,216.41,0,147.53-85.53,223.5-228.49,223.5h-104.35v-255.49h-123.17v359.79h235.82c223.61,0,345.8-128.72,345.8-327.79,0-184.66-110.7-314.85-275.42-335.37h.24Z"></path>
  <path d="M1022.42,368.37c69.65,0,124.14,22.47,162.51,66.68,38.61,44.21,58.16,104.3,58.16,180.51v25.4h-333.57c.98,74.26,47.9,127.75,116.56,127.75,51.81,0,90.18-28.09,97.76-76.21h116.56c-9.28,94.77-93.1,166.34-214.32,166.34-138.07,0-234.11-91.11-234.11-247.19,0-143.87,97.75-243.28,230.2-243.28h.25ZM908.78,558.15h217.25c-2.93-63.02-43.25-104.3-104.35-104.3-31.03,0-56.45,9.28-76.97,29.07-20.77,19.78-32.99,44.21-35.68,75.23h-.24Z"></path>
  <path d="M1304.43,383.27h114.62v34.68c0,16.85-.98,32.97-3.67,47.88,31.04-64.73,75.27-97.7,134.41-97.7,8.55,0,16.86.98,24.44,2.93v110.89c-10.27-2.93-20.78-3.66-32.99-3.66-75.27,0-122.19,41.28-122.19,136.3v227.4h-114.62v-458.72Z"></path>
  <path d="M1729.41,383.27v20.76c0,16.85-.98,32-3.67,45.19,26.4-45.92,69.65-80.85,132.46-80.85,53.51,0,101.41,40.3,120.23,85.49,29.08-47.88,85.53-85.49,148.58-85.49,92.13,0,157.87,74.25,157.87,185.15v288.47h-114.61v-271.61c0-67.66-27.37-110.89-76.25-110.89s-87.49,46.9-87.49,115.53v266.73h-114.61v-271.61c0-68.64-26.39-110.89-76.25-110.89s-86.51,45.19-86.51,115.53v266.73h-114.61v-458.23h114.86Z"></path>
  <path d="M2571.05,368.37c69.65,0,124.15,22.47,162.52,66.68,38.61,44.21,58.16,104.3,58.16,180.51v25.4h-333.58c.98,74.26,47.9,127.75,116.57,127.75,51.81,0,90.18-28.09,97.75-76.21h116.57c-9.29,94.77-93.11,166.34-214.32,166.34-138.07,0-234.11-91.11-234.11-247.19,0-143.87,97.75-243.28,230.2-243.28h.24ZM2457.17,558.15h217.26c-2.94-63.02-43.26-104.3-104.35-104.3-31.04,0-56.45,9.28-76.98,29.07-20.77,19.78-32.99,44.21-35.68,75.23h-.25Z"></path>
  <path d="M2855.26,182.24h114.61v659.74h-114.61V182.24Z"></path>
  <path d="M3263.12,368.37c69.65,0,124.15,22.47,162.51,66.68,38.62,44.21,58.17,104.3,58.17,180.51v25.4h-333.58c.98,74.26,47.9,127.75,116.57,127.75,51.81,0,90.17-28.09,97.75-76.21h116.57c-9.29,94.77-93.11,166.34-214.32,166.34-138.08,0-234.12-91.11-234.12-247.19,0-143.87,97.75-243.28,230.21-243.28h.24ZM3149.49,558.15h217.25c-2.93-63.02-43.26-104.3-104.35-104.3-31.04,0-56.45,9.28-76.98,29.07-20.77,19.78-32.99,44.21-35.68,75.23h-.24Z"></path>
  <path d="M3603.3,383.26l100.68,302.63c4.64,12.21,10.26,32,16.86,59.11,3.67-18.81,9.29-38.59,15.89-59.11l99.7-302.63h118.53l-168.38,458.47h-133.43l-173.02-458.47h123.17Z"></path>
  <path d="M4178.33,368.37c69.64,0,124.14,22.47,162.51,66.68,38.61,44.21,58.16,104.3,58.16,180.51v25.4h-333.58c.98,74.26,47.9,127.75,116.57,127.75,51.81,0,90.18-28.09,97.75-76.21h116.57c-9.28,94.77-93.11,166.34-214.32,166.34-138.07,0-234.11-91.11-234.11-247.19,0-143.87,97.75-243.28,230.2-243.28h.25ZM4064.69,558.15h217.25c-2.93-63.02-43.25-104.3-104.35-104.3-31.03,0-56.45,9.28-76.98,29.07-20.77,19.78-32.99,44.21-35.68,75.23h-.24Z"></path>
  <path d="M439.09,177.6h-142.96V33h-123.17v144.6H30v119.69h142.96v144.6h123.17v-144.6h142.96v-119.69Z" class="st0"></path>
  <path d="M4387.21,446.72c-8.97-5.26-16.09-12.38-21.35-21.35-5.27-8.97-7.9-18.72-7.9-29.25s2.63-20.5,7.9-29.47c5.27-8.97,12.39-16.08,21.35-21.35,8.97-5.26,18.72-7.9,29.25-7.9s20.25,2.64,29.15,7.9c8.9,5.27,15.98,12.39,21.25,21.35,5.26,8.97,7.9,18.79,7.9,29.47s-2.64,20.29-7.9,29.25c-5.27,8.97-12.35,16.09-21.25,21.35-8.9,5.27-18.61,7.9-29.15,7.9s-20.29-2.63-29.25-7.9ZM4440.27,437.43c7.19-4.2,12.88-9.93,17.08-17.19,4.2-7.26,6.3-15.3,6.3-24.13s-2.1-16.87-6.3-24.13c-4.2-7.26-9.9-12.99-17.08-17.19-7.19-4.2-15.13-6.3-23.81-6.3s-16.66,2.1-23.92,6.3c-7.26,4.2-12.99,9.93-17.19,17.19-4.2,7.26-6.3,15.3-6.3,24.13s2.1,16.87,6.3,24.13c4.2,7.26,9.93,12.99,17.19,17.19,7.26,4.2,15.23,6.3,23.92,6.3s16.62-2.1,23.81-6.3ZM4394.47,363.87h26.69c6.12,0,11.03,1.6,14.73,4.8,3.7,3.2,5.55,7.44,5.55,12.71,0,3.42-.85,6.48-2.56,9.18-1.71,2.71-3.99,4.7-6.83,5.98,2.56,1.14,4.55,2.85,5.98,5.12,1.42,2.28,2.14,5.12,2.14,8.54v16.44h-10.68v-14.31c0-3.98-.82-6.8-2.46-8.43-1.64-1.63-4.52-2.46-8.65-2.46h-13.45v25.2h-10.46v-62.78ZM4428.1,389.49c1.92-1.56,2.88-3.84,2.88-6.83s-.93-5.19-2.78-6.62c-1.85-1.42-4.63-2.14-8.33-2.14h-14.95v17.94h14.95c3.56,0,6.3-.78,8.22-2.35Z"></path>
</svg>