<svg width="122" height="15" viewBox="0 0 122 15" fill="none" xmlns="http://www.w3.org/2000/svg">
<g filter="url(#filter0_b_218_1817)">
<path d="M0 13.9731H9.38574V11.5764H3.13507V8.19049H7.88636V5.94593H3.13507V2.7693H9.07418V0.37256H0L0 13.9731Z" fill="#0B1C30"/>
<path d="M18.4535 13.9731H27.2745V11.5573H21.608V0.37256H18.4535V13.9731Z" fill="#0B1C30"/>
<path d="M37.9172 13.9731H41.0912V8.11441L45.4336 0.37256H42.3764L39.6113 5.58452L36.7878 0.37256H33.3217L37.9172 8.11441V13.9731Z" fill="#0B1C30"/>
<path d="M58.3459 14.1823C61.6367 14.1823 63.6619 12.2611 63.6619 9.84539C63.6619 7.03017 61.9288 6.13615 58.5601 5.71767C56.4181 5.41332 55.9702 4.9568 55.9702 3.98669C55.9702 3.07365 56.6712 2.44593 58.0538 2.44593C59.4363 2.44593 60.1763 3.01658 60.371 4.25299H63.2724C63.0193 1.55191 61.1889 0.182343 58.0538 0.182343C54.9771 0.182343 52.9909 1.91332 52.9909 4.23397C52.9909 6.85897 54.4514 7.90517 58.0149 8.36169C60.0595 8.66604 60.6436 9.04647 60.6436 10.1307C60.6436 11.1959 59.7284 11.9378 58.3459 11.9378C56.2818 11.9378 55.756 10.9296 55.6197 9.71223H52.6015C52.7768 12.4323 54.5293 14.1823 58.3459 14.1823Z" fill="#0B1C30"/>
<path d="M72.8838 13.9731H76.0579V0.37256H72.8838V13.9731Z" fill="#0B1C30"/>
<path d="M91.6385 14.1823C95.3967 14.1823 97.5192 12.2611 97.5192 8.55191V0.37256H94.3452V8.36169C94.3452 10.8535 93.5273 11.7285 91.658 11.7285C89.7497 11.7285 89.0681 10.7394 89.0681 8.47582V0.37256H85.8941V8.66604C85.8941 12.2802 87.9777 14.1823 91.6385 14.1823Z" fill="#0B1C30"/>
<path d="M107.279 13.9731H110.102V4.42419L113.977 13.9731H115.009L118.865 4.42419V13.9731H122V0.37256H117.911L114.698 8.83723L111.446 0.37256H107.279V13.9731Z" fill="#0B1C30"/>
</g>
<defs>
<filter id="filter0_b_218_1817" x="-29.3878" y="-29.2054" width="180.776" height="72.7755" filterUnits="userSpaceOnUse" color-interpolation-filters="sRGB">
<feFlood flood-opacity="0" result="BackgroundImageFix"/>
<feGaussianBlur in="BackgroundImageFix" stdDeviation="14.6939"/>
<feComposite in2="SourceAlpha" operator="in" result="effect1_backgroundBlur_218_1817"/>
<feBlend mode="normal" in="SourceGraphic" in2="effect1_backgroundBlur_218_1817" result="shape"/>
</filter>
</defs>
</svg>
