<svg xmlns="http://www.w3.org/2000/svg" fill="none" viewBox="0 0 202 21" height="21" width="202">
<path fill="#1B1F23" d="M8.996 20.78C7.22267 20.78 5.70133 20.4907 4.432 19.912C3.18133 19.3333 2.20133 18.484 1.492 17.364C0.801333 16.244 0.418667 14.8533 0.344 13.192C0.325333 12.4267 0.316 11.6053 0.316 10.728C0.316 9.85067 0.325333 9.01067 0.344 8.208C0.418667 6.584 0.810667 5.212 1.52 4.092C2.22933 2.95333 3.21867 2.09467 4.488 1.516C5.75733 0.918666 7.26 0.619999 8.996 0.619999C10.228 0.619999 11.3667 0.778666 12.412 1.096C13.4573 1.39467 14.372 1.84267 15.156 2.44C15.94 3.01867 16.5467 3.728 16.976 4.568C17.424 5.38933 17.6573 6.32267 17.676 7.368C17.6947 7.536 17.6387 7.676 17.508 7.788C17.396 7.9 17.256 7.956 17.088 7.956H13.308C13.0653 7.956 12.8787 7.90933 12.748 7.816C12.6173 7.704 12.5053 7.508 12.412 7.228C12.1507 6.23867 11.7213 5.56667 11.124 5.212C10.5453 4.83867 9.82667 4.652 8.968 4.652C7.94133 4.652 7.12933 4.94133 6.532 5.52C5.93467 6.08 5.608 7.02267 5.552 8.348C5.496 9.87867 5.496 11.4467 5.552 13.052C5.608 14.3773 5.93467 15.3293 6.532 15.908C7.12933 16.468 7.94133 16.748 8.968 16.748C9.82667 16.748 10.5547 16.5613 11.152 16.188C11.7493 15.8147 12.1693 15.1427 12.412 14.172C12.4867 13.892 12.5893 13.7053 12.72 13.612C12.8693 13.5 13.0653 13.444 13.308 13.444H17.088C17.256 13.444 17.396 13.5 17.508 13.612C17.6387 13.724 17.6947 13.864 17.676 14.032C17.6573 15.0773 17.424 16.02 16.976 16.86C16.5467 17.6813 15.94 18.3907 15.156 18.988C14.372 19.5667 13.4573 20.0147 12.412 20.332C11.3667 20.6307 10.228 20.78 8.996 20.78ZM28.6282 20.78C26.9108 20.78 25.4175 20.5 24.1482 19.94C22.8788 19.38 21.8895 18.54 21.1802 17.42C20.4708 16.2813 20.0788 14.8627 20.0042 13.164C19.9855 12.3613 19.9762 11.5587 19.9762 10.756C19.9762 9.95333 19.9855 9.14133 20.0042 8.32C20.0788 6.64 20.4708 5.23067 21.1802 4.092C21.9082 2.93467 22.9068 2.06667 24.1762 1.488C25.4455 0.909332 26.9295 0.619999 28.6282 0.619999C30.3082 0.619999 31.7828 0.909332 33.0522 1.488C34.3402 2.06667 35.3482 2.93467 36.0762 4.092C36.8042 5.23067 37.1962 6.64 37.2522 8.32C37.2895 9.14133 37.3082 9.95333 37.3082 10.756C37.3082 11.5587 37.2895 12.3613 37.2522 13.164C37.1775 14.8627 36.7855 16.2813 36.0762 17.42C35.3668 18.54 34.3775 19.38 33.1082 19.94C31.8388 20.5 30.3455 20.78 28.6282 20.78ZM28.6282 16.748C29.6175 16.748 30.4202 16.4493 31.0362 15.852C31.6708 15.2547 32.0068 14.3027 32.0442 12.996C32.0815 12.1747 32.1002 11.4 32.1002 10.672C32.1002 9.944 32.0815 9.188 32.0442 8.404C32.0068 7.52667 31.8388 6.81733 31.5402 6.276C31.2602 5.716 30.8682 5.30533 30.3642 5.044C29.8602 4.78267 29.2815 4.652 28.6282 4.652C27.9935 4.652 27.4242 4.78267 26.9202 5.044C26.4162 5.30533 26.0148 5.716 25.7162 6.276C25.4175 6.81733 25.2495 7.52667 25.2122 8.404C25.1935 9.188 25.1842 9.944 25.1842 10.672C25.1842 11.4 25.1935 12.1747 25.2122 12.996C25.2682 14.3027 25.6042 15.2547 26.2202 15.852C26.8362 16.4493 27.6388 16.748 28.6282 16.748ZM41.2538 20.5C41.0484 20.5 40.8804 20.4347 40.7498 20.304C40.6191 20.1733 40.5538 20.0053 40.5538 19.8V1.6C40.5538 1.39467 40.6191 1.22667 40.7498 1.096C40.8804 0.965332 41.0484 0.899999 41.2538 0.899999H44.9498C45.1364 0.899999 45.2951 0.965332 45.4258 1.096C45.5751 1.22667 45.6498 1.39467 45.6498 1.6V16.272H54.1058C54.3111 16.272 54.4791 16.3467 54.6098 16.496C54.7591 16.6267 54.8338 16.7947 54.8338 17V19.8C54.8338 20.0053 54.7591 20.1733 54.6098 20.304C54.4791 20.4347 54.3111 20.5 54.1058 20.5H41.2538ZM65.05 20.78C63.3327 20.78 61.8394 20.5 60.57 19.94C59.3007 19.38 58.3114 18.54 57.602 17.42C56.8927 16.2813 56.5007 14.8627 56.426 13.164C56.4074 12.3613 56.398 11.5587 56.398 10.756C56.398 9.95333 56.4074 9.14133 56.426 8.32C56.5007 6.64 56.8927 5.23067 57.602 4.092C58.33 2.93467 59.3287 2.06667 60.598 1.488C61.8674 0.909332 63.3514 0.619999 65.05 0.619999C66.73 0.619999 68.2047 0.909332 69.474 1.488C70.762 2.06667 71.77 2.93467 72.498 4.092C73.226 5.23067 73.618 6.64 73.674 8.32C73.7114 9.14133 73.73 9.95333 73.73 10.756C73.73 11.5587 73.7114 12.3613 73.674 13.164C73.5994 14.8627 73.2074 16.2813 72.498 17.42C71.7887 18.54 70.7994 19.38 69.53 19.94C68.2607 20.5 66.7674 20.78 65.05 20.78ZM65.05 16.748C66.0394 16.748 66.842 16.4493 67.458 15.852C68.0927 15.2547 68.4287 14.3027 68.466 12.996C68.5034 12.1747 68.522 11.4 68.522 10.672C68.522 9.944 68.5034 9.188 68.466 8.404C68.4287 7.52667 68.2607 6.81733 67.962 6.276C67.682 5.716 67.29 5.30533 66.786 5.044C66.282 4.78267 65.7034 4.652 65.05 4.652C64.4154 4.652 63.846 4.78267 63.342 5.044C62.838 5.30533 62.4367 5.716 62.138 6.276C61.8394 6.81733 61.6714 7.52667 61.634 8.404C61.6154 9.188 61.606 9.944 61.606 10.672C61.606 11.4 61.6154 12.1747 61.634 12.996C61.69 14.3027 62.026 15.2547 62.642 15.852C63.258 16.4493 64.0607 16.748 65.05 16.748ZM85.0676 20.78C83.2943 20.78 81.7636 20.4907 80.4756 19.912C79.2063 19.3147 78.217 18.456 77.5076 17.336C76.817 16.1973 76.4343 14.816 76.3596 13.192C76.341 12.3893 76.3316 11.54 76.3316 10.644C76.3316 9.72933 76.341 8.86133 76.3596 8.04C76.4343 6.45333 76.8263 5.10933 77.5356 4.008C78.245 2.90667 79.2436 2.06667 80.5316 1.488C81.8196 0.909332 83.3316 0.619999 85.0676 0.619999C86.4676 0.619999 87.709 0.797332 88.7916 1.152C89.8743 1.488 90.7796 1.94533 91.5076 2.524C92.2543 3.10267 92.8143 3.73733 93.1876 4.428C93.5796 5.11867 93.785 5.8 93.8036 6.472C93.8223 6.64 93.7663 6.78 93.6356 6.892C93.5236 7.004 93.3836 7.06 93.2156 7.06H89.1276C88.9223 7.06 88.7636 7.032 88.6516 6.976C88.5583 6.90133 88.4743 6.79867 88.3996 6.668C88.269 6.388 88.073 6.09867 87.8116 5.8C87.569 5.48267 87.2236 5.212 86.7756 4.988C86.3463 4.764 85.777 4.652 85.0676 4.652C84.0036 4.652 83.1636 4.932 82.5476 5.492C81.9503 6.052 81.6236 6.948 81.5676 8.18C81.5116 9.78533 81.5116 11.4093 81.5676 13.052C81.6236 14.3587 81.969 15.3013 82.6036 15.88C83.2383 16.4587 84.0783 16.748 85.1236 16.748C85.833 16.748 86.4583 16.6267 86.9996 16.384C87.5596 16.1413 87.9983 15.768 88.3156 15.264C88.633 14.7413 88.7916 14.0787 88.7916 13.276V12.744H86.1596C85.9543 12.744 85.777 12.6787 85.6276 12.548C85.497 12.3987 85.4316 12.2213 85.4316 12.016V9.944C85.4316 9.73867 85.497 9.57067 85.6276 9.44C85.777 9.29067 85.9543 9.216 86.1596 9.216H93.2156C93.421 9.216 93.589 9.29067 93.7196 9.44C93.8503 9.57067 93.9156 9.73867 93.9156 9.944V13.136C93.9156 14.7413 93.5516 16.1133 92.8236 17.252C92.0956 18.3907 91.0596 19.268 89.7156 19.884C88.3903 20.4813 86.841 20.78 85.0676 20.78ZM97.828 20.5C97.6226 20.5 97.4546 20.4347 97.324 20.304C97.1933 20.1733 97.128 20.0053 97.128 19.8V1.6C97.128 1.39467 97.1933 1.22667 97.324 1.096C97.4546 0.965332 97.6226 0.899999 97.828 0.899999H100.796C101.113 0.899999 101.337 0.974665 101.468 1.124C101.617 1.25467 101.711 1.35733 101.748 1.432L108.58 12.212V1.6C108.58 1.39467 108.645 1.22667 108.776 1.096C108.907 0.965332 109.075 0.899999 109.28 0.899999H112.64C112.845 0.899999 113.013 0.965332 113.144 1.096C113.275 1.22667 113.34 1.39467 113.34 1.6V19.8C113.34 19.9867 113.275 20.1547 113.144 20.304C113.013 20.4347 112.845 20.5 112.64 20.5H109.644C109.345 20.5 109.121 20.4253 108.972 20.276C108.841 20.1267 108.757 20.024 108.72 19.968L101.888 9.608V19.8C101.888 20.0053 101.823 20.1733 101.692 20.304C101.561 20.4347 101.393 20.5 101.188 20.5H97.828ZM117.953 20.5C117.748 20.5 117.58 20.4347 117.449 20.304C117.318 20.1733 117.253 20.0053 117.253 19.8V1.6C117.253 1.39467 117.318 1.22667 117.449 1.096C117.58 0.965332 117.748 0.899999 117.953 0.899999H131.029C131.234 0.899999 131.402 0.965332 131.533 1.096C131.664 1.22667 131.729 1.39467 131.729 1.6V4.232C131.729 4.43733 131.664 4.60533 131.533 4.736C131.402 4.86667 131.234 4.932 131.029 4.932H122.097V8.712H130.413C130.618 8.712 130.786 8.78667 130.917 8.936C131.048 9.06667 131.113 9.23467 131.113 9.44V11.876C131.113 12.0627 131.048 12.2307 130.917 12.38C130.786 12.5107 130.618 12.576 130.413 12.576H122.097V16.468H131.253C131.458 16.468 131.626 16.5333 131.757 16.664C131.888 16.7947 131.953 16.9627 131.953 17.168V19.8C131.953 20.0053 131.888 20.1733 131.757 20.304C131.626 20.4347 131.458 20.5 131.253 20.5H117.953ZM135.388 20.5C135.182 20.5 135.014 20.4347 134.884 20.304C134.753 20.1733 134.688 20.0053 134.688 19.8V16.244C134.688 16.0573 134.753 15.8987 134.884 15.768C135.014 15.6187 135.182 15.544 135.388 15.544H138.916C139.121 15.544 139.289 15.6187 139.42 15.768C139.569 15.8987 139.644 16.0573 139.644 16.244V19.8C139.644 20.0053 139.569 20.1733 139.42 20.304C139.289 20.4347 139.121 20.5 138.916 20.5H135.388ZM150.937 20.78C149.164 20.78 147.643 20.4907 146.373 19.912C145.123 19.3333 144.143 18.484 143.433 17.364C142.743 16.244 142.36 14.8533 142.285 13.192C142.267 12.4267 142.257 11.6053 142.257 10.728C142.257 9.85067 142.267 9.01067 142.285 8.208C142.36 6.584 142.752 5.212 143.461 4.092C144.171 2.95333 145.16 2.09467 146.429 1.516C147.699 0.918666 149.201 0.619999 150.937 0.619999C152.169 0.619999 153.308 0.778666 154.353 1.096C155.399 1.39467 156.313 1.84267 157.097 2.44C157.881 3.01867 158.488 3.728 158.917 4.568C159.365 5.38933 159.599 6.32267 159.617 7.368C159.636 7.536 159.58 7.676 159.449 7.788C159.337 7.9 159.197 7.956 159.029 7.956H155.249C155.007 7.956 154.82 7.90933 154.689 7.816C154.559 7.704 154.447 7.508 154.353 7.228C154.092 6.23867 153.663 5.56667 153.065 5.212C152.487 4.83867 151.768 4.652 150.909 4.652C149.883 4.652 149.071 4.94133 148.473 5.52C147.876 6.08 147.549 7.02267 147.493 8.348C147.437 9.87867 147.437 11.4467 147.493 13.052C147.549 14.3773 147.876 15.3293 148.473 15.908C149.071 16.468 149.883 16.748 150.909 16.748C151.768 16.748 152.496 16.5613 153.093 16.188C153.691 15.8147 154.111 15.1427 154.353 14.172C154.428 13.892 154.531 13.7053 154.661 13.612C154.811 13.5 155.007 13.444 155.249 13.444H159.029C159.197 13.444 159.337 13.5 159.449 13.612C159.58 13.724 159.636 13.864 159.617 14.032C159.599 15.0773 159.365 16.02 158.917 16.86C158.488 17.6813 157.881 18.3907 157.097 18.988C156.313 19.5667 155.399 20.0147 154.353 20.332C153.308 20.6307 152.169 20.78 150.937 20.78ZM170.57 20.78C168.852 20.78 167.359 20.5 166.09 19.94C164.82 19.38 163.831 18.54 163.122 17.42C162.412 16.2813 162.02 14.8627 161.946 13.164C161.927 12.3613 161.918 11.5587 161.918 10.756C161.918 9.95333 161.927 9.14133 161.946 8.32C162.02 6.64 162.412 5.23067 163.122 4.092C163.85 2.93467 164.848 2.06667 166.118 1.488C167.387 0.909332 168.871 0.619999 170.57 0.619999C172.25 0.619999 173.724 0.909332 174.994 1.488C176.282 2.06667 177.29 2.93467 178.018 4.092C178.746 5.23067 179.138 6.64 179.194 8.32C179.231 9.14133 179.25 9.95333 179.25 10.756C179.25 11.5587 179.231 12.3613 179.194 13.164C179.119 14.8627 178.727 16.2813 178.018 17.42C177.308 18.54 176.319 19.38 175.05 19.94C173.78 20.5 172.287 20.78 170.57 20.78ZM170.57 16.748C171.559 16.748 172.362 16.4493 172.978 15.852C173.612 15.2547 173.948 14.3027 173.986 12.996C174.023 12.1747 174.042 11.4 174.042 10.672C174.042 9.944 174.023 9.188 173.986 8.404C173.948 7.52667 173.78 6.81733 173.482 6.276C173.202 5.716 172.81 5.30533 172.306 5.044C171.802 4.78267 171.223 4.652 170.57 4.652C169.935 4.652 169.366 4.78267 168.862 5.044C168.358 5.30533 167.956 5.716 167.658 6.276C167.359 6.81733 167.191 7.52667 167.154 8.404C167.135 9.188 167.126 9.944 167.126 10.672C167.126 11.4 167.135 12.1747 167.154 12.996C167.21 14.3027 167.546 15.2547 168.162 15.852C168.778 16.4493 169.58 16.748 170.57 16.748ZM183.195 20.5C183.008 20.5 182.84 20.4347 182.691 20.304C182.56 20.1733 182.495 20.0053 182.495 19.8V1.6C182.495 1.39467 182.56 1.22667 182.691 1.096C182.84 0.965332 183.008 0.899999 183.195 0.899999H186.219C186.518 0.899999 186.742 0.983999 186.891 1.152C187.059 1.30133 187.162 1.42267 187.199 1.516L192.127 10.364L197.055 1.516C197.111 1.42267 197.204 1.30133 197.335 1.152C197.484 0.983999 197.718 0.899999 198.035 0.899999H201.031C201.236 0.899999 201.404 0.965332 201.535 1.096C201.684 1.22667 201.759 1.39467 201.759 1.6V19.8C201.759 20.0053 201.684 20.1733 201.535 20.304C201.404 20.4347 201.236 20.5 201.031 20.5H197.699C197.494 20.5 197.316 20.4347 197.167 20.304C197.036 20.1733 196.971 20.0053 196.971 19.8V9.3L193.807 15.152C193.732 15.32 193.62 15.4693 193.471 15.6C193.322 15.7307 193.116 15.796 192.855 15.796H191.399C191.138 15.796 190.932 15.7307 190.783 15.6C190.634 15.4693 190.512 15.32 190.419 15.152L187.255 9.3V19.8C187.255 20.0053 187.19 20.1733 187.059 20.304C186.928 20.4347 186.76 20.5 186.555 20.5H183.195Z"></path>
</svg>
